PathFileType	4	(X/Y/Z)	C:\Users\chris\Documents\GitHub\baseballds\vids\pitch7_Sports2D\pitch7_Sports2D_px_person00.trc
DataRate	CameraRate	NumFrames	NumMarkers	Units	OrigDataRate	OrigDataStartFrame	OrigNumFrames
30	30	10	22	m	30	147	236
Frame#	Time	Hip			RHip			RKnee			RAnkle			RBigToe			RSmallToe			RHeel			LHip			LKnee			LAnkle			LBigToe			LSmallToe			LHeel			Neck			Head			Nose			RShoulder			RElbow			RWrist			LShoulder			LElbow			LWrist		
		X1	Y1	Z1	X2	Y2	Z2	X3	Y3	Z3	X4	Y4	Z4	X5	Y5	Z5	X6	Y6	Z6	X7	Y7	Z7	X8	Y8	Z8	X9	Y9	Z9	X10	Y10	Z10	X11	Y11	Z11	X12	Y12	Z12	X13	Y13	Z13	X14	Y14	Z14	X15	Y15	Z15	X16	Y16	Z16	X17	Y17	Z17	X18	Y18	Z18	X19	Y19	Z19	X20	Y20	Z20	X21	Y21	Z21	X22	Y22	Z22
147	4.9	841.0686421493194	530.6505542365551	0.0	794.093842784282	541.0872570930909	0.0	793.3785196051193	714.7116685740898	0.0	777.2994974361407	868.4679596793382	0.0	787.0270116788374	928.238518211826	0.0	755.5887447928767	924.8093242167624	0.0	780.3573611116465	890.6077481519999	0.0	886.7014947706672	541.8986086152483	0.0	910.4776547336091	712.8207923286398	0.0	949.1313166078071	855.0725012118114	0.0	926.0455036025221	919.2182126548097	0.0	957.4544743028508	917.5908351050227	0.0	959.8346534008828	878.0478376033418	0.0	841.0271634572875	259.43700137487644	0.0	858.1999641172281	138.75575955142313	0.0	899.0337043402064	198.6711285405102	0.0	759.0971445500712	306.8653255836094	0.0	723.3423303201844	431.2605730822009	0.0	804.5456479647276	459.6177038918421	0.0	920.3843055707202	300.8841356810814	0.0	950.4619283128876	423.0324565657106	0.0	908.1343226976396	471.323448032322	0.0
148	4.933333333333334	842.1479469902891	529.7689863761848	0.0	794.8715086515516	540.4526941504919	0.0	793.0402338320092	715.5665588474391	0.0	777.2415391644579	868.5666264014976	0.0	786.3463198688935	929.9123105471677	0.0	755.5676481003968	925.625231767741	0.0	780.9551511274727	891.444986922764	0.0	887.235150008329	542.2155865895002	0.0	911.296412149006	713.3225077686021	0.0	949.8048384914466	854.8292731329364	0.0	925.1905991765746	919.4138304474337	0.0	957.0741709047936	917.5895486648056	0.0	960.3941208402423	877.7460780134102	0.0	842.4290359188956	259.1541091989981	0.0	859.6826700552716	137.92981119887384	0.0	900.5706584587705	197.75397417562857	0.0	759.6736959940389	305.8587554768695	0.0	724.7758087918382	432.5206046900009	0.0	806.5418090111469	457.26445000880045	0.0	921.9578681752545	300.298340543883	0.0	950.8587444986001	423.65154878764827	0.0	911.0330023669877	470.7278368524875	0.0
149	4.966666666666667	842.7533163531152	528.3890730982005	0.0	794.8472293937643	538.2672403110506	0.0	792.8956381663356	714.3353974884113	0.0	777.0084602185567	869.2170574426495	0.0	786.309345840917	929.2313580561821	0.0	755.5820641250182	924.4904098233549	0.0	781.5703660847965	892.4979867764174	0.0	888.7176345934199	540.6776346334942	0.0	911.7390382075156	712.4735674562124	0.0	949.6792821216603	855.1158411403767	0.0	924.9237933494774	917.9794223025278	0.0	957.2232288474383	916.5396269782653	0.0	961.0932463822026	878.4793963291357	0.0	843.4222183887433	257.77930582669507	0.0	860.593995266552	136.51374418899732	0.0	901.8297019606251	195.68010895922765	0.0	761.0950343791808	304.55953396650705	0.0	725.2929194017486	433.0445599252273	0.0	808.1746760389358	453.4250091552398	0.0	923.270587824137	299.5251376853493	0.0	950.986147039981	424.1186504281169	0.0	912.097155346177	470.15671064492506	0.0
150	5.0	843.0310750044735	525.9738974248842	0.0	794.8720277798122	534.9573609246763	0.0	793.6087803574701	711.8825618147923	0.0	776.8705077766717	869.3347121922537	0.0	787.2462480626541	927.4171787397422	0.0	756.1279772603023	923.2003983522948	0.0	781.176511658937	892.356885268566	0.0	890.5863006659455	537.5075414353795	0.0	911.9952442858472	711.3761877564407	0.0	948.9879673220072	854.7650805512783	0.0	925.6037232094543	916.5323078356516	0.0	957.4052994502935	915.3513789466687	0.0	960.9695785480965	878.4078774336417	0.0	844.1859049277431	255.84052683964973	0.0	861.2124862412695	136.0083298680691	0.0	902.9537988426359	193.97918000799564	0.0	762.480591206862	303.43448654894695	0.0	725.4761531324345	433.17379990189824	0.0	809.677356493681	447.42586894060076	0.0	924.038025594549	298.6305180067004	0.0	951.415745313829	424.5536772767603	0.0	911.8781648851419	467.6751283694565	0.0
151	5.033333333333333	843.7482799917215	523.3568698304623	0.0	795.9520324697778	532.411642155993	0.0	794.2814143994642	711.1534637961867	0.0	777.1824071585859	869.2768413760064	0.0	787.6262798250982	927.3626291371778	0.0	756.3388000963229	923.965040229335	0.0	780.4100599646529	891.8195394631	0.0	892.3064686912633	534.913429786411	0.0	912.3261744698069	711.4216719854429	0.0	948.5857291839893	854.120429933222	0.0	926.2224948770587	916.4970038584629	0.0	957.0238621800894	915.1164528760735	0.0	960.4061942866358	877.2239525038574	0.0	845.1288760070166	254.2645145377951	0.0	862.2399927312654	136.45379843051091	0.0	904.3604273225005	193.86841426824108	0.0	763.0186151783671	302.62201293776155	0.0	726.2609721084968	433.1902050716458	0.0	810.5078514665807	441.30614501215666	0.0	924.5387229862085	297.7677190284869	0.0	952.6637750883373	424.4064284379623	0.0	912.3214095848366	462.24448196231657	0.0
152	5.066666666666666	845.0919717483387	522.0199466142178	0.0	797.5530034745034	531.5565745934955	0.0	794.442013961914	711.8509331137802	0.0	777.8509040715812	869.5519286289156	0.0	787.0929810490818	928.2097743004315	0.0	755.7865528409072	925.0876758667604	0.0	780.2236076673448	892.123629274913	0.0	893.664622234699	534.0793819924813	0.0	912.6919178688972	711.8486753065512	0.0	948.7542488848356	854.1641961245462	0.0	926.0374879119626	916.8669325590074	0.0	956.7060238454542	915.128439009325	0.0	960.1002453891605	877.0364833581015	0.0	846.233200578428	253.23531217351416	0.0	863.6965233581182	136.47175996123474	0.0	905.9810921846274	194.8456008952823	0.0	763.3684232654946	301.9039677773595	0.0	727.0365407538073	431.85991449056553	0.0	810.2964304402421	438.4584468255603	0.0	925.3069140896318	296.96946653936425	0.0	954.3300701850038	423.1898473886798	0.0	913.4694263690358	457.36253835809	0.0
153	5.1	846.597394586985	522.2523927243207	0.0	798.7194408284571	531.9405923414708	0.0	794.7741958272622	711.7094916526191	0.0	778.3057902027142	869.3541372853933	0.0	786.8009063424508	927.4377770959746	0.0	755.4197183499813	924.2802859299808	0.0	780.6442252517368	892.664365947246	0.0	894.5185812302685	534.5208799255481	0.0	913.170346939156	711.2049327171093	0.0	949.1311508896124	854.8066103813727	0.0	925.4649452551388	916.2202158670589	0.0	957.1180097065552	914.4828948205013	0.0	959.9716901647521	878.8602813049533	0.0	847.1706854653244	252.5859111466949	0.0	865.0380015810186	135.5534449048923	0.0	907.5530894354838	195.40430832586222	0.0	764.3093974189753	301.19938821713595	0.0	727.102483569053	429.0712442521899	0.0	809.7053413052024	439.2187114244593	0.0	926.7747306910566	296.2763292397026	0.0	955.8817332638115	421.55595230753516	0.0	913.9393133925436	457.0465910609651	0.0
154	5.133333333333333	847.6811868743918	522.9551546616086	0.0	799.5094396527084	532.9918189935354	0.0	795.316988888442	711.2039596211246	0.0	778.3569875290218	868.2869539778126	0.0	786.908364658033	926.1842980105166	0.0	755.7595424253872	923.0834412759302	0.0	781.5214153190841	892.2629466154392	0.0	894.8915097798472	535.3911599598163	0.0	913.9462569367278	709.9435484605046	0.0	949.4758378971235	855.1976229153231	0.0	925.0869783403245	915.3605184848618	0.0	957.6598508421647	913.9483517812981	0.0	959.7689488296064	880.7492403018881	0.0	847.9645694087916	252.4524725720707	0.0	865.9458984242506	134.55162013970659	0.0	908.8590442151085	194.98508343597567	0.0	765.443192848562	300.68585591518513	0.0	727.2585992421805	427.28119079844237	0.0	809.8257269744322	440.4936480531314	0.0	928.6196968252478	295.79696507147315	0.0	957.37753998292	420.7018688888388	0.0	913.9531012435258	459.1571523177246	0.0
155	5.166666666666667	848.2826891738754	522.8838792638938	0.0	800.5626002764348	534.1225554099494	0.0	795.4615829032051	711.8359826656019	0.0	778.4765933858916	867.3383446044892	0.0	786.593678272428	927.1766153751707	0.0	756.139976203193	923.7453270038798	0.0	782.8009748179913	891.1431602785717	0.0	895.2628767573547	535.8097522735368	0.0	914.6079210796787	709.5147225301531	0.0	949.8322547674061	855.0693782137981	0.0	925.0179196914728	915.6728746516192	0.0	957.5601370326374	914.4434296791471	0.0	959.7460022297039	880.7246274799104	0.0	848.9093993363373	252.71454564414307	0.0	866.636394080341	134.0890810370929	0.0	909.7693470901214	194.23931652393878	0.0	766.0540318099139	300.38084712390906	0.0	728.107191892728	427.86211834061004	0.0	811.1253030452108	439.9774948319181	0.0	929.9170264893542	295.47924928225854	0.0	959.1207973020416	420.86305650696903	0.0	914.5295894720393	458.76820153070287	0.0
156	5.2	848.8991009594623	522.213257408284	0.0	802.0642499685431	534.7787198793469	0.0	795.5377164979806	712.516203752901	0.0	778.9865790982531	867.1455487036674	0.0	786.1190800815448	929.0442519694179	0.0	756.0146096866503	924.737707055822	0.0	783.8129414721448	890.318497932799	0.0	896.2839862408982	535.4271794047926	0.0	914.5241185527384	709.9330997106227	0.0	950.1405525594392	854.8496057930473	0.0	925.3921913070391	916.2884888510905	0.0	957.1252613329153	915.0386781596486	0.0	959.9639029419939	879.3889695725405	0.0	849.8817866463036	252.71005356771258	0.0	867.4920354534297	133.79387057387711	0.0	910.6144757896199	193.76906877762684	0.0	766.1873228876432	300.1418892009202	0.0	728.8972041886263	428.61069558139883	0.0	812.7017829473583	438.3674929487535	0.0	930.5886669034131	295.24838032949515	0.0	960.9316910573083	421.05108982813266	0.0	915.3213167722628	456.33300005090564	0.0
